<svg fill="none" height="48" viewBox="0 0 48 48" width="48" xmlns="http://www.w3.org/2000/svg"><path d="m40 4h-32c-2.2 0-4 1.8-4 4v31.1716c0 1.7818 2.15428 2.6741 3.41421 1.4142l4.58579-4.5858h28c2.2 0 4-1.8 4-4v-24c0-2.2-1.8-4-4-4zm-22 16c0 1.1046-.8954 2-2 2-1.1046 0-2-.8954-2-2 0-1.1046.8954-2 2-2 1.1046 0 2 .8954 2 2zm8 0c0 1.1046-.8954 2-2 2-1.1046 0-2-.8954-2-2 0-1.1046.8954-2 2-2 1.1046 0 2 .8954 2 2zm8 0c0 1.1046-.8954 2-2 2-1.1046 0-2-.8954-2-2 0-1.1046.8954-2 2-2 1.1046 0 2 .8954 2 2z" fill="#1c93e3"/></svg>