<svg fill="none" height="48" viewBox="0 0 48 48" width="48" xmlns="http://www.w3.org/2000/svg"><path d="m23.6 21.8c-4.54-1.18-6-2.4-6-4.3 0-2.18 2.02-3.7 5.4-3.7 2.84 0 4.26 1.08 4.78 2.8.24.8.9 1.4 1.74 1.4h.6c1.32 0 2.26-1.3 1.8-2.54-.84-2.36-2.8-4.32-5.92-5.08v-1.38c0-1.66-1.34-3-3-3s-3 1.34-3 3v1.32c-3.88.84-7 3.36-7 7.22 0 4.62 3.82 6.92 9.4 8.26 5 1.2 6 2.96 6 4.82 0 1.38-.98 3.58-5.4 3.58-3.3 0-5-1.18-5.66-2.86-.3-.78-.98-1.34-1.8-1.34h-.56c-1.34 0-2.28 1.36-1.78 2.6 1.14 2.78 3.8 4.42 6.8 5.06v1.34c0 1.66 1.34 3 3 3s3-1.34 3-3v-1.3c3.9-.74 7-3 7-7.1 0-5.68-4.86-7.62-9.4-8.8z" fill="#1c93e3"/></svg>